<svg xmlns="http://www.w3.org/2000/svg" viewBox="0 0 250 106" font-family="Georgia, 'Times New Roman', serif">
  <defs>
    <clipPath id="oval50"><ellipse cx="125" cy="53" rx="30" ry="36"/></clipPath>
    <linearGradient id="sheen50" x1="0" y1="0" x2="0" y2="1">
      <stop offset="0" stop-color="#ffffff" stop-opacity=".35"/>
      <stop offset="1" stop-color="#ffffff" stop-opacity="0"/>
    </linearGradient>
  </defs>
  <rect x="2" y="2" width="246" height="102" rx="10" fill="#f6e8ee" stroke="#bb5573" stroke-width="2.5"/>
  <rect x="2" y="2" width="246" height="102" rx="10" fill="url(#sheen50)"/>
  <rect x="10" y="9" width="230" height="88" rx="6" fill="none" stroke="#bb5573" stroke-width="1.3" opacity=".75"/>
  <rect x="14" y="13" width="222" height="80" rx="4" fill="none" stroke="#bb5573" stroke-width=".6" opacity=".5"/>
  <g fill="#bb5573" font-weight="bold" font-size="14">
    <text x="22" y="31" text-anchor="start">50</text>
    <text x="228" y="31" text-anchor="end">50</text>
    <text x="22" y="93" text-anchor="start">50</text>
    <text x="228" y="93" text-anchor="end">50</text>
  </g>
  <ellipse cx="125" cy="53" rx="30" ry="36" fill="#fcf3f6"/>
  <g clip-path="url(#oval50)">
    <rect x="95" y="17" width="60" height="72" fill="#f7e9ef"/>
    <circle cx="125" cy="50" r="12" fill="#e7bccb"/>
    <path d="M104 92 Q125 62 146 92 Z" fill="#e7bccb"/>
  </g>
  <ellipse cx="125" cy="53" rx="30" ry="36" fill="none" stroke="#bb5573" stroke-width="1.3"/>
  <g stroke="#bb5573" fill="none" stroke-width="1.2" opacity=".8">
    <circle cx="72" cy="53" r="13"/>
    <circle cx="72" cy="53" r="9" stroke-dasharray="2 2"/>
    <circle cx="178" cy="53" r="13"/>
  </g>
  <text x="72" y="58" fill="#bb5573" font-size="12" text-anchor="middle" font-weight="bold">$</text>
  <text x="178" y="57" fill="#bb5573" font-size="8" text-anchor="middle" font-weight="bold">50</text>
  <text x="125" y="16" fill="#bb5573" font-size="6.5" letter-spacing="1" text-anchor="middle">UNITED STATES OF AMERICA</text>
  <text x="125" y="98" fill="#bb5573" font-size="7.5" letter-spacing="1.5" text-anchor="middle" font-weight="bold">FIFTY DOLLARS</text>
</svg>
